<mxfile host="app.diagrams.net" modified="2023-06-19T16:23:05.383Z" agent="Mozilla/5.0 (Windows NT 10.0; Win64; x64) AppleWebKit/537.36 (KHTML, like Gecko) Chrome/114.0.0.0 Safari/537.36 Edg/114.0.1823.43" version="21.3.4" etag="TkiY9sEU0ecIWEQMWMsV" type="github">
  <diagram name="Page-1" id="dQD7q0FV81Xkfr1hVzfH">
    <mxGraphModel>
      <root>
        <mxCell id="0" />
        <mxCell id="1" parent="0" />
      </root>
    </mxGraphModel>
  </diagram>
</mxfile>
